<svg width="31" height="31" viewBox="0 0 31 31" fill="none" xmlns="http://www.w3.org/2000/svg">
<path d="M25.2039 5.75574C24.65 6.30964 24.6039 7.17126 25.0962 7.78671C27.3272 10.587 28.4965 14.4181 27.4503 18.4339C26.2348 23.1266 22.5575 26.6347 17.8955 27.5732C10.0486 29.1272 3.17103 23.0651 3.17103 15.4798C3.17103 9.20223 7.86379 4.0325 13.9413 3.27858V6.38657C9.12545 7.20204 5.58665 11.7102 6.35595 16.8953C6.95601 20.911 10.2948 24.1421 14.3259 24.6345C19.9265 25.3269 24.7116 20.9572 24.7116 15.4798C24.7116 13.5565 24.1269 11.7871 23.1268 10.31C22.6037 9.54072 21.4805 9.49456 20.8189 10.1408L20.8035 10.1562C20.2804 10.6793 20.2342 11.4948 20.6342 12.1102C21.5574 13.5257 21.9267 15.3413 21.3882 17.2184C20.7881 19.3263 19.0187 21.0034 16.8647 21.4803C12.8643 22.3573 9.32547 19.3417 9.32547 15.4798C9.32547 12.6179 11.2949 10.2331 13.9413 9.54072V12.8333C13.0181 13.3719 12.4027 14.3412 12.4027 15.4798C12.4027 17.1722 13.7874 18.557 15.4799 18.557C17.1724 18.557 18.5571 17.1722 18.5571 15.4798C18.5571 14.3412 17.9417 13.3565 17.0185 12.8333V1.18607C17.0185 0.586016 16.5262 0.0936607 15.9261 0.0936607C7.67915 -0.214061 0.57078 6.34042 0.124583 14.5566C-0.429316 24.6345 8.44846 32.743 18.6033 30.5581C24.5731 29.2811 29.1889 24.7114 30.5275 18.757C31.6199 13.895 30.2198 9.27916 27.4964 5.87883C26.9272 5.15569 25.8501 5.10953 25.2039 5.75574Z" fill="#37474F"/>
</svg>
