<svg width="27" height="27" viewBox="0 0 27 27" fill="none" xmlns="http://www.w3.org/2000/svg">
<path fill-rule="evenodd" clip-rule="evenodd" d="M0.652771 22.4931C0.652771 24.6218 2.37835 26.3473 4.50694 26.3473H22.493C24.6217 26.3473 26.3472 24.6218 26.3472 22.4931V4.507C26.3472 2.37841 24.6217 0.652832 22.493 0.652832H4.50694C2.37835 0.652832 0.652771 2.37841 0.652771 4.507V22.4931ZM23.7778 22.4931C23.7778 23.2027 23.2026 23.7778 22.493 23.7778H4.50693C3.79741 23.7778 3.22221 23.2027 3.22221 22.4931V4.507C3.22221 3.79747 3.79741 3.22228 4.50693 3.22228H10.9305V13.5143L14.0075 13.5144L16.0696 10.7561L18.1315 13.5144H21.2084L21.2083 3.22228H22.493C23.2026 3.22228 23.7778 3.79747 23.7778 4.507V22.4931ZM13.5 3.22228H18.6389V10.0772L16.0696 6.64023L13.5 10.0774V3.22228Z" fill="#2D2D2D"/>
</svg>
