<svg width="24" height="30" viewBox="0 0 24 30" fill="none" xmlns="http://www.w3.org/2000/svg">
<path fill-rule="evenodd" clip-rule="evenodd" d="M16.1256 0.083252H3.19217C1.82041 0.083252 0.708374 1.2607 0.708374 2.71315V26.3823C0.708374 27.8347 1.82041 29.0122 3.19217 29.0122H20.5787C21.9505 29.0122 23.0625 27.8347 23.0625 26.3823V7.42829L16.1256 0.083252ZM3.19215 2.71315H13.1274V7.97297C13.1274 9.42543 14.2394 10.6029 15.6112 10.6029H20.5787V26.3823H3.19215V2.71315ZM15.6112 7.97297V3.2579L20.0643 7.97297H15.6112ZM15.9749 13.6179L10.6436 19.2628L7.79607 16.2478L6.03976 18.1074L10.6436 22.9821L17.7313 15.4775L15.9749 13.6179Z" fill="#262626"/>
</svg>
